<svg width="480" height="492" viewBox="0 0 480 492" fill="none" xmlns="http://www.w3.org/2000/svg">
<g clip-path="url(#clip0_228_12)">
<mask id="mask0_228_12" style="mask-type:alpha" maskUnits="userSpaceOnUse" x="0" y="0" width="480" height="492">
<rect x="-3.05176e-05" width="480" height="492" fill="#D9D9D9"/>
</mask>
<g mask="url(#mask0_228_12)">
<path d="M215.813 747.333L270.814 692.332C255.033 676.55 242.505 658.734 233.286 639.724C241.914 624.114 252.839 609.424 266.072 596.191C335.839 526.424 445.494 520.736 521.747 579.209L523.868 577.088L577.096 523.86L579.209 521.747C520.736 445.489 526.43 335.833 596.197 266.066C609.435 252.834 624.122 241.906 639.735 233.276C658.742 242.497 676.561 255.022 692.342 270.803L747.34 215.805C745.088 213.553 742.841 211.354 740.536 209.214L740.539 209.211C710.118 180.799 674.796 160.674 637.409 148.801C637.409 148.801 637.407 148.804 637.401 148.798C637.308 148.833 637.213 148.881 637.114 148.921C633.193 150.406 629.297 152 625.424 153.676C624.911 153.897 624.395 154.104 623.89 154.327C620.334 155.889 616.82 157.553 613.325 159.282C612.267 159.803 611.214 160.318 610.169 160.853C609.951 160.969 609.734 161.065 609.513 161.179C609.5 161.187 609.492 161.195 609.47 161.201C585.728 106.119 545.202 61.9939 495.696 33.4203C468.08 17.4342 437.652 6.2696 405.839 0.745668C381.475 21.9453 361.185 47.1759 345.85 75.114C338.596 88.2657 332.496 102.045 327.491 116.25C284.483 89.5496 235.68 75.871 186.745 75.3857C154.843 75.0349 122.867 80.2666 92.4499 91.0918C81.6565 121.535 76.3929 153.485 76.773 185.358C77.2556 234.296 90.9316 283.096 117.635 326.107C103.427 331.114 89.6503 337.217 76.5013 344.468C48.5658 359.8 23.3246 380.09 2.13027 404.454C7.65952 436.268 18.8241 466.695 34.8076 494.314C63.2934 543.663 107.23 584.096 162.069 607.873C162.056 607.886 162.056 607.902 162.046 607.918C161.868 608.25 161.711 608.588 161.535 608.923C160.733 610.475 159.933 612.035 159.165 613.601C157.552 616.873 155.998 620.166 154.529 623.486C154.189 624.262 153.859 625.039 153.527 625.817C151.896 629.602 150.326 633.406 148.878 637.252C148.859 637.298 148.836 637.343 148.822 637.393C148.82 637.396 148.814 637.401 148.817 637.404C160.682 674.789 180.812 710.104 209.221 740.533C209.224 740.531 209.227 740.523 209.224 740.515C211.373 742.828 213.572 745.075 215.824 747.327L215.813 747.333ZM430.181 87.9588C482.513 108.457 525.347 151.28 544.137 208.128C543.263 208.918 542.447 209.733 541.615 210.56C541.458 210.717 541.293 210.86 541.137 211.017C539.973 212.181 538.832 213.321 537.692 214.509L537.698 214.515L537.7 214.512C518.778 234.126 503.378 255.881 491.493 278.992C491.488 279.008 491.477 279.024 491.466 279.045C460.965 259.499 427.424 246.645 392.909 240.472C383.049 185.171 397.747 130.163 430.179 87.9614L430.181 87.9588ZM465.574 356.022C458.938 393.641 460.245 432.32 469.521 469.492C433.075 460.404 395.151 458.991 358.233 465.198C323.571 422.148 309.862 367.808 317.25 315.849C368.807 308.56 422.695 321.966 465.572 356.019L465.574 356.022ZM156.5 155.099C210.997 147.401 268.097 162.812 312.049 201.3C311.82 213.409 312.395 225.629 313.831 237.887C293.264 240.208 272.902 244.834 253.197 251.845C246.203 271.555 241.574 291.908 239.256 312.451C227.001 311.018 214.785 310.438 202.682 310.667C164.189 266.715 148.754 209.591 156.503 155.097L156.5 155.099ZM89.3327 428.807C131.542 396.367 186.547 381.678 241.854 391.533C248.062 426.247 261.019 459.971 280.757 490.621C280.73 490.632 280.709 490.643 280.688 490.653C256.944 502.634 234.607 518.302 214.52 537.703C214.523 537.7 214.52 537.698 214.523 537.69C213.329 538.83 212.192 539.967 211.028 541.131C210.892 541.267 210.775 541.405 210.642 541.538C210.249 541.937 209.85 542.33 209.468 542.75C152.641 523.955 109.831 481.123 89.3327 428.807Z" fill="white"/>
</g>
</g>
<defs>
<clipPath id="clip0_228_12">
<rect width="480" height="492" fill="white"/>
</clipPath>
</defs>
</svg>
