<svg width="480" height="333" viewBox="0 0 480 333" fill="none" xmlns="http://www.w3.org/2000/svg">
<g clip-path="url(#clip0_228_6)">
<path fill-rule="evenodd" clip-rule="evenodd" d="M33 0C33.4376 0.773429 33.879 1.54471 34.3241 2.31381C62.8098 51.6624 106.746 92.0961 161.586 115.873C161.578 115.88 161.575 115.889 161.572 115.898C161.569 115.904 161.567 115.911 161.562 115.918C161.465 116.099 161.374 116.282 161.283 116.465C161.207 116.617 161.132 116.77 161.052 116.923C160.249 118.475 159.45 120.035 158.682 121.601C157.069 124.873 155.515 128.166 154.045 131.486C153.747 132.167 153.457 132.848 153.166 133.531L153.044 133.817C151.412 137.602 149.842 141.406 148.394 145.252C148.389 145.266 148.382 145.281 148.376 145.295C148.362 145.326 148.348 145.358 148.339 145.393C148.336 145.396 148.331 145.401 148.333 145.404C160.199 182.788 180.329 218.104 208.738 248.533C208.741 248.53 208.743 248.522 208.741 248.514C210.888 250.827 213.086 253.073 215.338 255.324L215.33 255.332L215.34 255.327L215.338 255.324L270.33 200.331C254.549 184.55 242.021 166.733 232.803 147.724C241.431 132.114 252.356 117.424 265.588 104.191C323.409 46.3706 408.626 32.5626 479.522 62.8143V0L277.57 0C254.808 11.7999 233.379 27.0206 214.036 45.7026C214.038 45.7012 214.038 45.6999 214.038 45.6979C214.038 45.6959 214.038 45.6933 214.039 45.6893C212.846 46.8294 211.708 47.9669 210.544 49.131C210.476 49.1991 210.413 49.2679 210.349 49.3363C210.287 49.4041 210.225 49.4715 210.159 49.5376C210.08 49.6175 210.001 49.6971 209.922 49.7768C209.606 50.0949 209.29 50.4137 208.984 50.7495C177.569 40.3592 150.438 22.6232 128.992 0L33 0ZM479.522 284.684V174.611L426.265 227.868C390.828 263.305 333.349 263.318 297.865 227.833L242.84 282.858C308.13 348.148 413.567 348.74 479.522 284.684Z" fill="#6C27FF"/>
</g>
<defs>
<clipPath id="clip0_228_6">
<rect width="480" height="332.28" fill="white"/>
</clipPath>
</defs>
</svg>
